<svg width="489" height="390" viewBox="0 0 489 390" fill="none" xmlns="http://www.w3.org/2000/svg">
<g clip-path="url(#clip0_14:514)">
<path d="M243.578 0.403137C348.835 0.403137 434.174 85.8351 434.174 191.214L243.578 0.403137Z" fill="#F9E1CE"/>
<path d="M434.174 191.231C434.174 296.61 348.835 382.034 243.578 382.034C138.322 382.034 52.9739 296.628 52.9739 191.231C52.9739 85.8351 138.313 0.403137 243.578 0.403137" fill="#F9E1CE"/>
<path d="M245.968 279.319C245.968 279.319 228.205 234.868 194.912 252.65C161.618 270.432 194.912 335.61 194.912 335.61C194.912 335.61 163.833 326.724 163.833 340.054C163.833 353.384 190.464 345.978 205.268 347.468C220.072 348.958 273.344 340.054 245.968 279.319Z" fill="#1D1D1B"/>
<path d="M184.73 107.894C184.73 107.894 183.119 146.57 178.952 149.147C174.785 151.723 169.629 169.427 188.512 169.681C207.396 169.935 215.065 156.71 204.883 135.606C194.702 114.502 189.501 97.4649 184.748 107.894" fill="#444353"/>
<path d="M174.934 136.351C174.934 136.351 191.953 136.351 192.688 179.295C193.424 222.239 188.25 275.594 192.688 285.962C197.127 296.33 208.228 351.149 245.216 352.63C282.204 354.111 310.332 305.962 277.774 260.783C245.216 215.604 228.197 201.52 228.197 175.596C228.197 149.672 233.511 119.962 233.511 119.962L181.587 108.946L174.934 136.351Z" fill="#34323A"/>
<path d="M232.863 125.378C234.819 116.192 232.367 106.618 226.236 99.507C215.835 87.2373 211.992 87.509 211.064 81.8562C210.136 76.2034 202.231 71.5146 197.993 71.9879C193.756 72.4611 184.266 72.2683 171.432 87.8157C158.598 103.363 164.822 129.883 169.988 133.24C170.863 133.845 172.614 135.159 175.039 136.745C186.096 143.941 211.055 156.175 232.819 125.413" fill="#34323A"/>
<path d="M195.595 72.2683C195.595 72.2683 193.966 78.7449 195.927 84.6869C196.111 85.2415 196.324 85.7857 196.566 86.3171C197.781 88.9935 199.889 91.1628 202.528 92.4519C211.974 97.1582 207.089 107.14 211.125 114.16C211.677 115.123 212.381 115.99 213.209 116.728C220.825 123.643 237.599 126.684 234.553 116.798C231.506 106.913 233.029 104.792 213.209 86.0629C213.209 86.0629 213.725 79.5687 206.984 75.3532C200.243 71.1377 196.278 69.5339 195.603 72.242" fill="white"/>
<path d="M205.111 68.4472C205.111 68.4472 204.402 85.0989 198.685 86.2382C192.968 87.3775 192.443 75.3094 192.443 75.3094C192.443 75.3094 204.104 59.5341 205.111 68.4472Z" fill="#1D1D1B"/>
<path d="M218.768 121.224C218.768 121.224 217.157 159.909 212.99 162.477C208.823 165.044 203.666 182.757 222.55 183.02C241.434 183.282 249.103 170.049 238.921 148.945C228.739 127.841 223.539 110.804 218.786 121.224" fill="#444353"/>
<path d="M192.688 286.006C195.691 293.017 201.758 320.413 216.825 337.836C216.825 337.836 220.799 314.892 225.982 287.487C231.165 260.082 207.483 242.291 208.972 195.631C210.46 148.971 184.03 141.636 184.03 141.636L183.732 141.995C188.013 147.438 192.329 158.182 192.688 179.339C193.432 222.282 188.25 275.638 192.688 286.006Z" fill="white"/>
<path d="M270.359 288.206C270.359 288.206 252.622 243.763 219.328 261.572C186.035 279.38 219.328 344.532 219.328 344.532C219.328 344.532 188.25 335.645 188.25 348.984C188.25 362.323 214.89 354.909 229.685 356.39C244.48 357.871 297.761 348.949 270.359 288.206Z" fill="#444353"/>
<path d="M233.388 224.5C231.909 235.613 250.407 240.056 260.764 257.803C271.12 275.55 286.747 277.347 286.747 277.347L286.704 277.251C284.324 271.707 281.332 266.448 277.783 261.572C252.035 225.823 235.997 209.557 230.42 191.459C230.744 193.098 234.798 213.843 233.388 224.517" fill="#1D1D1B"/>
<path d="M207.238 93.749V93.8454C206.241 96.1775 203.722 97.464 201.25 96.904C201.25 96.904 205.995 102.942 207.44 99.3317C208.884 95.7209 207.282 93.749 207.282 93.749" fill="#444353"/>
<path d="M188.066 71.2254C187.112 71.4385 186.178 71.7317 185.273 72.1018C182.647 72.9782 184.721 75.1604 182.41 74.9238C180.099 74.6872 182.69 72.9607 180.099 73.8283C177.508 74.6959 171.975 85.0726 171.975 85.0726L180.966 89.3582L188.066 71.2254Z" fill="#34323A"/>
<path d="M188.25 71.164C188.25 71.164 196.05 69.0694 196.225 71.2254C196.4 73.3813 188.25 79.3146 188.25 79.3146L180.852 85.984L167.659 93.749C167.659 93.749 171.633 84.5643 173.288 82.68C174.943 80.7957 180.852 78.5697 180.852 78.5697L188.25 71.164Z" fill="#34323A"/>
<path d="M207.378 93.6964C206.387 96.0631 203.853 97.3883 201.346 96.8515" stroke="#1D1D1B"/>
<path d="M268.424 277.531C268.424 277.531 305.254 203.037 289.365 182.108C273.475 161.18 277.809 150.295 277.809 150.295C277.809 150.295 279.253 145.956 284.305 153.187C289.356 160.417 301.639 181.381 303.81 198.76C305.981 216.139 300.194 251.537 300.194 251.537L268.424 277.531Z" fill="#34323A"/>
<path d="M302.619 201.52C302.619 201.52 289.663 195.999 288.262 199.768C286.861 203.536 289.619 215.806 292.972 216.262C296.325 216.717 309.509 205.683 302.602 201.547" fill="#E8BEB1"/>
<path d="M298.032 270.564L297.822 265.568C296.561 262.509 295.292 258.127 297.437 256.401L297.121 248.794L335.747 260.695C335.747 260.695 376.359 292.859 358.937 327.048C358.574 328.237 357.959 329.334 357.134 330.264C344.878 344.111 285.898 329.852 285.898 329.852C285.898 329.852 280.794 317.626 280.794 305.558C280.794 295.453 293.812 276.444 298.032 270.546" fill="white"/>
<path d="M296.43 273.631C296.43 273.631 321.459 293.394 332.814 281.221C344.169 269.047 341.271 265.691 341.271 265.691H310.875L296.43 273.631Z" fill="#CCCCCC"/>
<path d="M274.368 230.731C276.923 230.526 279.347 229.517 281.293 227.848C282.163 225.221 283.304 222.692 284.699 220.302C292.674 206.63 308.108 198.926 323.543 202.327C342.978 206.604 355.059 226.866 350.498 247.514C345.937 268.162 326.528 281.475 307.128 277.189C302.516 276.176 298.166 274.212 294.355 271.422C294.355 271.422 279.035 261.028 272.285 259.065C265.535 257.102 263.977 231.949 274.403 230.722" fill="white"/>
<path d="M317.695 228.47C317.695 228.47 331.369 231.45 329.347 240.03C327.325 248.61 321.24 246.708 321.24 251.949C321.24 257.19 304.335 262.921 301.893 256.006C299.45 249.092 302.05 240.748 301.893 239.355C301.735 237.961 305.867 218.084 317.695 228.514" fill="#E8BEB1"/>
<path d="M300.842 334.173C300.842 337.626 306.541 340.431 313.58 340.431C320.619 340.431 326.327 337.626 326.327 334.173C326.327 330.72 320.619 327.907 313.58 327.907C306.541 327.907 300.842 330.711 300.842 334.173Z" fill="white"/>
<path d="M337.112 212.87C337.112 212.87 356.224 213.808 356.372 218.584C356.521 223.36 347.513 235.113 343.013 233.833C338.513 232.554 326.432 213.676 337.121 212.87" fill="white"/>
<path d="M350.743 276.576C350.743 276.576 332.359 284.665 331.553 293.622C331.553 293.622 351.409 283.105 356.355 285.182L350.743 276.576Z" fill="#E8BEB1"/>
<path d="M360.741 294.875C360.741 294.875 334.906 299.134 334.906 305.751C334.906 305.751 361.765 301.842 363.122 305.751C363.122 305.751 362.474 299.266 360.741 294.875Z" fill="#E8BEB1"/>
<path d="M277.756 328.897C277.756 332.359 283.456 335.163 290.494 335.163C297.533 335.163 303.241 332.359 303.241 328.897C303.241 325.435 297.498 322.64 290.494 322.64C283.491 322.64 277.756 325.444 277.756 328.897Z" fill="white"/>
<path d="M336.184 216.489C336.184 216.489 349.964 217.164 350.069 220.6C350.174 224.035 343.678 232.528 340.439 231.599C337.2 230.67 328.48 217.059 336.193 216.489" fill="#FFB1B9"/>
<path d="M287.5 254.56C287.5 254.56 278.036 260.424 272.25 259.048C266.463 257.672 266.419 243.018 268.179 237.138" stroke="#372E2C"/>
<path d="M268.258 231.458C268.258 231.458 268.757 230.293 269.938 232.072L272.013 233.825C273.817 234.99 275.918 235.981 275.235 236.235C273.907 236.557 272.554 236.762 271.19 236.848C269.702 237.155 268.301 237.541 268.179 237.926C267.925 238.698 266.743 232.878 268.258 231.458Z" fill="#1D1D1B"/>
<path d="M289.137 227.208C288.428 228.189 287.334 228.435 286.704 227.751C286.069 226.834 286.119 225.607 286.826 224.745C287.535 223.764 288.621 223.518 289.26 224.193C289.89 225.115 289.84 226.341 289.137 227.208Z" fill="#1D1D1B"/>
<path d="M289.251 225.639C289.037 225.883 288.667 225.91 288.419 225.7C288.249 225.475 288.261 225.16 288.448 224.948C288.634 224.736 288.944 224.684 289.19 224.824C289.32 224.928 289.401 225.082 289.413 225.249C289.425 225.415 289.366 225.579 289.251 225.7" fill="white"/>
<path d="M287.465 226.165C287.457 226.214 287.429 226.257 287.387 226.284C287.345 226.31 287.294 226.318 287.246 226.305C287.148 226.287 287.082 226.194 287.097 226.095C287.106 226.046 287.134 226.002 287.175 225.974C287.217 225.946 287.267 225.936 287.316 225.946C287.416 225.968 287.481 226.064 287.465 226.165Z" fill="white"/>
<path d="M309.439 241.879C309.509 243.088 310.315 243.877 311.19 243.632C312.222 243.19 312.837 242.117 312.696 241.002C312.617 239.793 311.82 239.004 310.945 239.25C309.91 239.687 309.296 240.765 309.448 241.879" fill="#1D1D1B"/>
<path d="M310.166 240.538C310.2 240.777 310.376 240.971 310.61 241.03C310.844 241.089 311.09 241.001 311.233 240.807C311.377 240.613 311.389 240.351 311.265 240.144C311.14 239.938 310.903 239.827 310.665 239.863C310.341 239.913 310.119 240.214 310.166 240.538Z" fill="white"/>
<path d="M311.505 242.422C311.499 242.471 311.473 242.515 311.433 242.543C311.393 242.571 311.343 242.581 311.295 242.571C311.197 242.553 311.13 242.46 311.146 242.361C311.164 242.262 311.257 242.196 311.356 242.212C311.405 242.218 311.449 242.244 311.477 242.284C311.505 242.324 311.515 242.374 311.505 242.422Z" fill="white"/>
<path d="M60.9056 356.872C60.9056 356.872 67.7166 367.091 73.5647 372.209C79.4127 377.327 76.7863 366.74 77.3817 363.445C77.977 360.15 76.1998 349.028 77.6268 345.295C79.0538 341.561 72.3215 342.131 72.3215 342.131C72.3215 342.131 54.0245 344.891 60.9406 356.898" fill="#9C918E"/>
<path d="M163.553 379.948L162.677 380.193C162.368 380.162 162.061 380.109 161.758 380.035H161.688C160.629 379.711 160.401 379.159 160.401 379.159C160.221 378.318 160.141 377.459 160.165 376.6C160.165 371.508 160.165 366.416 156.777 366.416C153.389 366.416 94.0241 378.3 70.2817 356.223C70.2817 356.223 66.8937 354.532 61.7985 359.624C56.7034 364.716 41.4441 378.3 43.1425 373.208C44.8409 368.116 43.1425 356.223 53.3241 335.856C63.5057 315.488 83.7988 272.965 85.4972 291.659C85.4972 291.659 82.1004 303.543 99.058 298.451C116.016 293.359 143.155 286.567 156.724 300.133C170.294 313.7 156.724 335.786 161.811 342.578C166.897 349.37 175.38 376.53 163.509 379.93" fill="#B3A9A4"/>
<path d="M152.864 347.021C152.864 335.733 145.86 326.583 137.21 326.583C128.561 326.583 121.531 335.733 121.531 347.021C121.519 350.042 122.04 353.042 123.072 355.882C123.273 356.434 123.501 356.968 123.737 357.494C125.024 360.64 127.764 367.555 128.281 370.579C128.233 371.618 128.276 372.659 128.412 373.69C129.086 377.467 126.101 389.509 132.789 383.69C139.478 377.871 147.199 366.232 147.199 366.232C148.264 364.519 148.867 362.56 148.95 360.544C151.562 356.523 152.924 351.817 152.864 347.021Z" fill="#9C918E"/>
<path d="M47.7299 331.535C47.7299 331.535 46.2854 337.144 50.0937 339.046C53.9019 340.948 92.7197 332.035 96.3528 299.161C96.3528 299.161 92.5358 295.909 89.3492 299.161L48.6667 325.251L47.7299 331.535Z" fill="#F89A4C"/>
<path d="M38.8966 242.44C28.0719 246.584 19.8081 255.561 16.5637 266.699C10.8644 285.725 13.7184 289.485 8.49194 294.288C3.26546 299.091 3.72069 310.396 7.05619 314.445C10.3917 318.494 16.5637 328.468 41.2778 331.36C65.992 334.252 89.2616 309.958 89.2616 302.342C89.2616 294.726 95.4424 244.789 38.8966 242.414" fill="#B3A9A4"/>
<path d="M3.19542 308.687C3.19542 308.687 6.84608 323.349 23.9613 323.349C41.0765 323.349 56.5195 318.179 49.262 306.698C42.0044 295.217 36.314 291.483 42.0132 284.358C47.7124 277.233 50.0937 269.608 46.7669 263.43C43.4402 257.251 43.4402 248.207 43.4402 248.207C43.4402 248.207 42.4859 246.305 41.0589 251.064C39.5219 255.954 36.5433 260.265 32.5145 263.43C27.9139 266.933 25.5851 272.667 26.4388 278.39C27.3143 285.305 26.3338 290.537 20.6345 292.412C14.9353 294.288 4.28974 292.097 3.19542 308.67" fill="white"/>
<path d="M139.198 295.015C139.198 295.015 154.326 304.98 160.988 289.17C167.65 273.359 170.311 268.741 161.478 253.193C152.645 237.646 153.047 227.392 164.21 231.415C175.372 235.437 198.352 257.312 190.71 278.074C183.067 298.836 164.919 295.129 160.944 306.33C156.969 317.53 129.69 291.343 139.233 295.015" fill="#9C918E"/>
<path d="M43.2388 292.053C42.9849 294.086 44.053 295.655 45.6288 295.559C47.2047 295.462 48.6929 293.718 48.9468 291.676C49.2007 289.634 48.1326 288.074 46.5568 288.171C44.981 288.267 43.4927 290.02 43.2388 292.062" fill="#1D1D1B"/>
<path d="M44.8935 289.967C44.876 290.375 45.1061 290.753 45.4762 290.925C45.8463 291.097 46.2832 291.028 46.5827 290.751C46.8822 290.473 46.9851 290.043 46.8432 289.66C46.7014 289.277 46.3428 289.018 45.9352 289.003C45.669 288.991 45.4091 289.087 45.2134 289.268C45.0178 289.449 44.9025 289.701 44.8935 289.967Z" fill="white"/>
<path d="M46.5481 293.622C46.4832 293.78 46.3071 293.86 46.1454 293.806C45.9842 293.744 45.9023 293.565 45.9615 293.403C45.989 293.324 46.0476 293.259 46.1236 293.225C46.1996 293.19 46.2866 293.188 46.3642 293.219C46.4431 293.246 46.5074 293.305 46.5421 293.381C46.5768 293.457 46.579 293.544 46.5481 293.622Z" fill="white"/>
<path d="M16.1609 287.391C15.9771 289.441 17.1064 290.966 18.6735 290.8C20.2406 290.633 21.6676 288.845 21.8602 286.803C22.0528 284.761 20.9147 283.228 19.3476 283.394C17.7805 283.561 16.3535 285.349 16.1609 287.391Z" fill="#1D1D1B"/>
<path d="M17.7455 285.235C17.7432 285.501 17.8473 285.757 18.0347 285.947C18.2221 286.136 18.4773 286.242 18.7435 286.242C19.1515 286.246 19.5213 286.003 19.6799 285.626C19.8385 285.25 19.7545 284.815 19.4673 284.525C19.1801 284.235 18.7464 284.147 18.3691 284.303C17.9918 284.458 17.7455 284.826 17.7455 285.235Z" fill="white"/>
<path d="M19.5315 288.845C19.4772 289.009 19.3018 289.099 19.1375 289.047C18.9728 288.989 18.8838 288.811 18.9361 288.644C19.0008 288.492 19.171 288.416 19.327 288.469C19.4829 288.522 19.572 288.686 19.5315 288.845Z" fill="white"/>
<path d="M63.1555 254.455C63.1555 254.455 76.6113 251.256 79.7892 245.551C82.9671 239.846 83.221 243.193 84.4028 244.902C85.5847 246.611 88.0447 257.567 83.5274 265.717C79.01 273.868 63.1642 254.455 63.1642 254.455" fill="#9C918E"/>
<path d="M43.7816 243.921C43.7816 243.921 30.3171 240.722 27.1479 235.008C23.9788 229.294 23.7424 232.65 22.6043 234.403C21.4662 236.156 18.9624 247.058 23.4798 255.218C27.9971 263.377 43.8429 243.956 43.8429 243.956" fill="#B3A9A4"/>
<path d="M1.50579 295.156C1.50579 295.156 24.4865 293.85 28.3736 299.844C32.2606 305.839 12.519 301.597 9.27985 307.145C9.27985 307.145 -4.47359 299.047 1.50579 295.156Z" fill="#1D1D1B"/>
<path d="M14.8127 301.22C14.8127 301.22 44.3332 292.377 75.2193 301.22" stroke="#1D1D1B" stroke-width="0.5" stroke-linecap="round" stroke-linejoin="round"/>
<path d="M14.9528 302.552C14.9528 302.552 45.4362 298.056 74.7553 311.273" stroke="#1D1D1B" stroke-width="0.5" stroke-linecap="round" stroke-linejoin="round"/>
<path d="M14.7952 304.314C14.7952 304.314 45.6113 304.375 72.6542 321.781" stroke="#1D1D1B" stroke-width="0.5" stroke-linecap="round" stroke-linejoin="round"/>
<path d="M9.22732 307.145C9.22732 307.145 7.32758 310.948 10.6543 316.18C13.9811 321.413 20.8534 323.349 20.8534 323.349" stroke="#1D1D1B" stroke-width="0.5" stroke-linecap="round" stroke-linejoin="round"/>
<path d="M1.76842 296.435C1.76842 296.698 3.65941 297.005 6.01439 297.127C8.36937 297.25 10.2954 297.127 10.3129 296.865C10.3304 296.602 8.4219 296.295 6.06692 296.172C3.71194 296.049 1.78593 296.172 1.76842 296.435Z" fill="white"/>
<path d="M55.3201 338.573C55.3201 342.508 52.3523 345.706 48.7017 345.706C45.051 345.706 42.0832 342.508 42.0832 338.573C42.0832 334.637 45.0423 331.439 48.7017 331.439C52.3611 331.439 55.3201 334.629 55.3201 338.573Z" fill="#039797"/>
<path d="M136.668 360.448C136.668 360.448 135.792 343.016 126.609 347.722C126.609 347.722 124.858 336.495 119.018 339.554C119.018 339.554 112.663 332.157 113.013 328.117C113.363 324.077 103.54 328.415 108.425 338.24C107.952 341.201 108.392 344.237 109.686 346.942C111.233 349.694 113.194 352.192 115.499 354.348C115.845 356.792 117.194 358.98 119.22 360.386C119.22 360.386 120.034 366.398 123.01 367.625C125.439 368.475 127.956 369.046 130.513 369.326L136.668 360.448Z" fill="#E07C00"/>
<path d="M168.491 280.055C167.589 282.855 165.891 285.331 163.605 287.18C160.729 287.469 157.895 288.084 155.157 289.012C151.304 290.334 147.671 292.227 144.38 294.63C141.754 293.683 138.252 295.05 135.626 298.284C133.937 300.359 132.955 302.92 132.824 305.593C130.842 305.617 128.981 306.554 127.782 308.135C126.256 310.091 125.67 312.621 126.18 315.05C124.755 315.421 123.494 316.253 122.59 317.416C120.13 320.51 120.218 325.172 122.8 327.819C123.424 328.47 124.192 328.965 125.042 329.265C122.704 331.439 121.802 335.803 123.063 339.975C123.693 342.391 125.205 344.483 127.3 345.838C126.327 347.732 126.111 349.925 126.696 351.973C127.285 354.187 129.028 355.905 131.249 356.46C130.806 357.968 130.806 359.571 131.249 361.079C132.395 364.865 136.055 366.696 139.434 365.18C140.015 364.908 140.552 364.55 141.027 364.12C141.115 364.19 141.203 364.242 141.281 364.313C141.211 364.54 141.15 364.777 141.097 365.014C140.301 369.028 143.33 373.015 147.873 373.918C150.215 374.414 152.658 373.936 154.641 372.595C155.432 374.38 157.025 375.682 158.931 376.1C159.897 376.283 160.894 376.217 161.828 375.907C164.318 377.135 167.222 377.206 169.769 376.1C170.56 376.045 171.333 375.837 172.045 375.487C173.003 376.902 174.526 377.832 176.221 378.037C178.508 378.205 180.711 377.144 182.008 375.25C182.946 376.29 184.232 376.951 185.623 377.108C189.125 377.485 192.426 374.479 192.951 370.447C193.088 369.451 193.037 368.437 192.802 367.459C195.603 368.283 199.202 366.407 201.557 362.639C202.985 360.379 203.665 357.726 203.5 355.058C205.461 354.723 207.178 353.548 208.201 351.841C209.486 349.736 209.78 347.172 209.007 344.83C210.381 344.237 211.533 343.225 212.298 341.938C214.399 338.52 213.76 333.954 210.88 331.737C210.24 331.246 209.503 330.896 208.718 330.711C209.12 330.618 209.508 330.473 209.873 330.282C213.174 328.529 214.408 323.218 212.64 318.415C211.882 316.055 210.246 314.078 208.07 312.894C208.951 310.943 209.048 308.727 208.341 306.707C207.631 304.541 205.78 302.948 203.535 302.57C203.89 301.046 203.799 299.451 203.272 297.978C202.519 295.657 200.448 294.016 198.02 293.815C197.495 291.063 197.202 288.272 197.144 285.471C197.214 277.198 172.859 268.495 168.561 280.099" fill="#FFB87B"/>
<path d="M178.436 284.639C178.357 284.595 178.269 284.569 178.182 284.516C176.317 283.333 176.107 280.607 177.727 278.434C177.958 278.115 178.222 277.821 178.514 277.557C178.514 277.443 178.514 277.347 178.576 277.242C177.933 276.97 177.391 276.505 177.026 275.91C175.976 274.113 176.965 271.642 179.232 270.266C178.775 269.989 178.393 269.604 178.121 269.144C177.245 267.68 177.77 265.778 179.206 264.367C177.922 263.945 176.869 263.009 176.3 261.782C175.157 259.661 175.939 257.014 178.05 255.858C176.984 254.904 176.126 253.74 175.529 252.44C174.085 249.372 174.207 246.235 175.687 244.876C175.582 244.464 175.468 244.052 175.363 243.649C173.541 242.492 172.037 240.899 170.986 239.013C168.543 234.824 168.534 230.345 170.986 229.004H171.064C171.132 227.526 171.834 226.149 172.99 225.227C175.074 223.431 177.998 223.247 179.504 224.824C179.996 225.331 180.305 225.988 180.379 226.691C181.094 226.815 181.753 227.155 182.27 227.664C182.849 228.279 183.163 229.097 183.146 229.942C185.063 229.428 187.101 230.12 188.311 231.695C189.241 232.805 189.6 234.287 189.283 235.7C191.2 235.393 193.853 236.743 195.814 239.206C196.706 240.289 197.365 241.545 197.748 242.896C199.295 242.184 201.116 242.456 202.388 243.588C203.055 244.291 203.376 245.254 203.264 246.217C205.89 245.525 208.42 246.55 208.998 248.575C209.175 249.264 209.126 249.992 208.858 250.652C209.384 251.067 209.767 251.637 209.952 252.282C210.174 253.108 210.067 253.987 209.655 254.736C211.572 255.044 213.072 256.556 213.366 258.478C213.563 259.516 213.428 260.589 212.981 261.545C213.331 262.211 213.647 262.869 213.935 263.526C215.267 264.878 216.142 266.612 216.439 268.487C216.72 269.869 216.72 271.293 216.439 272.676C218.101 272.652 219.596 273.682 220.169 275.244C220.755 277.312 219.074 279.626 216.404 280.414C215.951 280.544 215.484 280.621 215.012 280.642C215.392 281.864 215.103 283.195 214.251 284.148C213.73 284.696 213.066 285.085 212.333 285.27C212.249 285.99 211.943 286.667 211.458 287.207C209.978 288.837 207.221 288.959 205.19 287.478C204.796 287.706 204.393 287.925 203.973 288.144C202.654 289.747 200.994 291.034 199.114 291.913C195.332 293.788 191.541 294.042 190.149 292.623C190.055 292.847 189.928 293.057 189.773 293.245C188.285 294.945 184.52 294.402 181.412 292.027C178.304 289.652 176.956 286.365 178.436 284.665" fill="#E07C00"/>
<path d="M203.824 249.915C201.088 249.69 198.495 248.601 196.418 246.804C195.491 243.987 194.277 241.274 192.793 238.706C190.76 235.199 188.23 232.004 185.282 229.224C185.483 226.314 183.443 223.089 180.029 221.336C177.871 220.168 175.36 219.834 172.973 220.398C172.507 218.321 171.079 216.592 169.129 215.743C167.179 214.894 164.941 215.028 163.106 216.104C162.481 214.802 161.448 213.741 160.165 213.08C158.146 212.007 155.721 212.037 153.729 213.16C151.738 214.283 150.455 216.344 150.325 218.628C147.865 216.822 143.829 217.042 140.485 219.399C138.454 220.776 136.996 222.849 136.387 225.227C134.334 224.683 132.144 225.152 130.491 226.488C128.838 227.824 127.92 229.868 128.018 231.993C126.578 231.945 125.162 232.367 123.982 233.194C120.997 235.347 120.294 239.502 122.406 242.519C122.78 243.027 123.222 243.481 123.72 243.868L123.615 244.166H122.958C119.255 244.403 116.497 248.548 116.83 253.351C116.93 255.795 117.921 258.117 119.614 259.88C118.188 261.244 117.438 263.169 117.565 265.139C117.628 266.158 117.928 267.148 118.441 268.031C118.256 269.177 118.256 270.346 118.441 271.493C118.651 273.16 119.251 274.754 120.192 276.146C120.419 276.925 120.787 277.656 121.277 278.302C120.094 279.929 119.703 282.001 120.212 283.947C120.721 285.894 122.076 287.508 123.903 288.346C122.431 291.018 122.947 294.347 125.158 296.447C127.369 298.548 130.718 298.888 133.306 297.276C133.306 300.335 135.766 303.499 139.618 304.875C141.903 305.737 144.424 305.737 146.709 304.875C147.46 306.864 149.108 308.379 151.151 308.96C153.195 309.54 155.392 309.117 157.075 307.82C158.739 310.304 161.846 311.385 164.691 310.468C167.535 309.55 169.429 306.857 169.331 303.867C169.504 304.245 169.722 304.601 169.979 304.927C172.308 307.82 177.245 307.697 181.027 304.656C182.97 303.16 184.294 301.002 184.748 298.591C186.833 299.006 188.991 298.401 190.558 296.963C192.125 295.524 192.913 293.424 192.679 291.308C194.119 291.267 195.505 290.756 196.628 289.853C198.54 288.305 199.451 285.832 199 283.412C201.256 282.158 203.624 281.12 206.074 280.309C213.314 278.241 215.065 251.265 203.885 249.915" fill="#FFC18C"/>
<path d="M207.203 255.831C207.203 255.831 211.134 277.829 205.943 280.265C186.192 289.52 180.047 278.162 180.047 278.162" stroke="#382F2D" stroke-width="0.5" stroke-linecap="round" stroke-linejoin="round"/>
<path d="M205.732 247.795C205.732 247.795 198.571 247.435 200.147 251.879C201.723 256.322 207.203 255.831 207.203 255.831C207.203 255.831 211.983 249.197 205.732 247.795Z" fill="#1D1D1B"/>
<path d="M158.3 292.36C158.353 292.29 158.431 292.228 158.484 292.149C159.736 290.327 158.843 287.767 156.505 286.383C156.166 286.188 155.808 286.027 155.437 285.901C155.374 285.813 155.316 285.723 155.262 285.629C155.734 285.126 156.04 284.489 156.138 283.806C156.392 281.738 154.501 279.854 151.883 279.494C152.192 279.057 152.39 278.552 152.461 278.022C152.671 276.339 151.445 274.788 149.581 274.069C150.584 273.175 151.179 271.908 151.226 270.564C151.429 268.157 149.647 266.04 147.243 265.831C147.852 264.532 148.183 263.12 148.215 261.686C148.329 258.303 146.972 255.463 145.081 254.806C145.011 254.385 144.949 253.929 144.897 253.553C146.123 251.767 146.884 249.704 147.112 247.549C147.707 242.729 145.947 238.61 143.181 238.347H143.093C142.442 237.018 141.254 236.032 139.828 235.639C137.202 234.815 134.453 235.805 133.7 237.847C133.472 238.512 133.472 239.234 133.7 239.898C133.089 240.291 132.615 240.863 132.343 241.537C132.057 242.332 132.095 243.207 132.448 243.974C130.483 244.251 128.88 245.687 128.386 247.611C127.97 248.997 128.226 250.499 129.077 251.668C127.204 252.15 125.295 254.438 124.455 257.47C124.082 258.803 123.98 260.198 124.157 261.572C122.455 261.531 120.89 262.501 120.165 264.043C119.847 264.955 119.943 265.96 120.428 266.795C117.802 267.189 115.823 269.144 116.094 271.23C116.199 271.933 116.531 272.583 117.04 273.079C116.673 273.683 116.516 274.392 116.593 275.095C116.726 275.94 117.173 276.704 117.845 277.233C116.209 278.275 115.425 280.25 115.902 282.132C116.131 283.168 116.683 284.104 117.478 284.805C117.416 285.55 117.381 286.286 117.381 286.996C116.691 288.764 116.572 290.704 117.04 292.544C117.334 293.927 117.906 295.236 118.721 296.391C117.18 297.02 116.206 298.558 116.296 300.221C116.576 302.351 119.036 303.814 121.802 303.481C122.268 303.418 122.726 303.306 123.168 303.148C123.31 304.408 124.096 305.503 125.243 306.04C125.936 306.335 126.697 306.429 127.44 306.312C127.805 306.94 128.356 307.439 129.016 307.741C131.021 308.617 133.586 307.644 134.882 305.506C135.328 305.558 135.757 305.602 136.256 305.637C138.107 306.58 140.142 307.104 142.218 307.171C146.429 307.399 150.01 306.137 150.727 304.279C150.901 304.451 151.102 304.593 151.323 304.7C153.354 305.672 156.576 303.692 158.51 300.274C160.445 296.856 160.375 293.306 158.344 292.334" fill="#E07C00"/>
<path d="M191.568 248.303C192.636 249.021 193.826 248.864 194.194 247.952C194.486 246.795 193.984 245.583 192.96 244.973C191.883 244.254 190.701 244.412 190.333 245.323C190.035 246.481 190.539 247.696 191.568 248.303Z" fill="#1D1D1B"/>
<path d="M190.832 246.778C191.029 246.889 191.271 246.887 191.465 246.771C191.66 246.656 191.778 246.446 191.776 246.219C191.774 245.993 191.651 245.785 191.454 245.674C191.257 245.563 191.015 245.565 190.821 245.68C190.626 245.796 190.508 246.006 190.51 246.232C190.512 246.459 190.635 246.667 190.832 246.778Z" fill="white"/>
<path d="M192.819 246.673C192.879 246.763 192.999 246.79 193.091 246.734C193.15 246.698 193.186 246.633 193.185 246.564C193.183 246.494 193.145 246.431 193.084 246.397C193.023 246.364 192.949 246.365 192.89 246.401C192.8 246.461 192.77 246.578 192.819 246.673Z" fill="white"/>
<path d="M169.979 261.642C169.76 262.921 168.832 263.666 167.904 263.316C166.86 262.732 166.331 261.526 166.608 260.362C166.818 259.091 167.755 258.347 168.683 258.697C169.723 259.279 170.252 260.481 169.979 261.642Z" fill="#1D1D1B"/>
<path d="M169.357 260.091C169.27 260.429 168.925 260.633 168.587 260.546C168.248 260.459 168.045 260.114 168.132 259.775C168.188 259.556 168.357 259.383 168.574 259.323C168.792 259.262 169.026 259.322 169.187 259.48C169.349 259.639 169.414 259.871 169.357 260.091Z" fill="white"/>
<path d="M167.694 261.984C167.703 262.091 167.796 262.173 167.904 262.168C167.997 262.148 168.064 262.066 168.064 261.97C168.064 261.875 167.997 261.793 167.904 261.773C167.796 261.783 167.715 261.875 167.72 261.984" fill="white"/>
<path d="M160.051 371.184C160.051 371.184 167.291 349.764 155.227 350.404C155.227 350.404 158.633 335.97 150.911 336.452C150.911 336.452 147.558 324.086 149.852 319.423C152.146 314.761 139.513 314.594 140.126 329.064C138.192 332.445 137.24 336.3 137.377 340.194C137.739 344.331 138.67 348.398 140.143 352.28C139.359 355.406 139.768 358.712 141.29 361.552C141.29 361.552 139.329 369.22 141.964 372.314C144.141 374.634 146.579 376.693 149.23 378.449L160.051 371.184Z" fill="#FFAC66"/>
<path d="M125.733 367.95C125.794 364.707 129.095 361.973 133.297 361.771C135.16 361.653 137.015 362.109 138.611 363.077C139.223 362.931 139.847 362.84 140.476 362.805C143.978 362.639 146.963 364.242 148.127 366.609C148.46 366.495 148.801 366.39 149.16 366.302C154.413 364.909 159.281 365.978 160.06 368.703C160.224 369.334 160.181 370.001 159.937 370.605L160.813 370.877L159.526 371.411C158.545 373.015 156.453 374.558 153.73 375.583C152.592 377.748 149.931 379.352 146.727 379.509C145.797 379.553 144.865 379.464 143.96 379.247C143.301 379.641 142.779 380.229 142.463 380.929C141.868 383.769 133.98 388.379 124.91 378.607C120.804 374.172 122.555 370.57 125.689 367.95" fill="#FFAC66"/>
<path d="M191.41 368.651C191.41 368.651 184.17 347.231 196.234 347.862C196.234 347.862 192.828 333.428 200.541 333.91C200.541 333.91 203.894 321.544 201.609 316.89C199.324 312.237 211.948 312.053 211.335 326.531C213.27 329.915 214.219 333.774 214.076 337.67C213.718 341.804 212.79 345.868 211.318 349.747C211.318 349.747 212.736 354.672 210.162 359.019C210.162 359.019 212.132 366.688 209.497 369.79C207.322 372.111 204.883 374.17 202.231 375.925L191.41 368.651Z" fill="#FFAC66"/>
<path d="M224.266 365.408C224.213 362.174 220.913 359.431 216.711 359.229C214.845 359.119 212.989 359.578 211.388 360.544C210.777 360.391 210.152 360.297 209.523 360.264C206.065 360.097 203.045 361.701 201.88 364.067L200.847 363.76C195.595 362.367 190.727 363.445 189.948 366.162C189.779 366.792 189.822 367.46 190.071 368.064L189.195 368.335L190.473 368.87C191.454 370.482 193.555 372.016 196.278 373.042C197.416 375.215 200.068 376.819 203.281 376.968C204.214 377.018 205.149 376.933 206.056 376.714C206.932 377.353 207.448 377.923 207.545 378.388C208.14 381.227 216.028 385.846 225.098 376.065C229.212 371.639 227.461 368.029 224.318 365.408" fill="#FFAC66"/>
<path d="M176.536 374.891C176.777 374.038 176.301 373.148 175.459 372.875C175.266 372.818 175.065 372.794 174.864 372.805C174.953 372.761 175.035 372.705 175.109 372.638C175.788 371.844 175.715 370.653 174.943 369.948C174.565 369.48 174.029 369.168 173.437 369.071C173.509 368.597 173.372 368.114 173.06 367.748L172.789 367.503C173.411 366.898 173.726 365.32 173.489 363.603C173.427 363.114 173.315 362.632 173.157 362.165C173.91 362.227 174.584 360.868 174.768 358.739C174.882 357.42 174.785 356.091 174.479 354.804C175.005 354.196 175.292 353.417 175.284 352.613C175.379 351.421 175.209 350.224 174.785 349.107C175.087 348.545 175.257 347.922 175.284 347.284C175.45 345.365 174.846 343.209 173.936 342.49C173.767 342.34 173.549 342.256 173.323 342.253C173.412 342.146 173.488 342.028 173.551 341.903C174.163 340.641 173.936 337.898 173.043 335.768C172.774 334.882 172.192 334.125 171.406 333.638C171.422 332.596 171.235 331.559 170.854 330.589C170.417 329.546 169.83 329.055 169.296 329.16C169.237 328.402 169.063 327.657 168.779 326.951C168.307 325.83 167.668 325.365 167.107 325.576C166.652 324.068 166.232 322.666 166.065 321.614C165.26 317.574 158.58 316.356 158.703 322.491C158.778 323.865 158.621 325.243 158.239 326.566C157.53 327.113 156.91 327.766 156.4 328.503C155.545 329.759 154.867 331.127 154.387 332.569C153.66 332.438 152.951 333.533 152.636 335.426C152.433 336.723 152.451 338.044 152.689 339.335C152.105 339.781 151.754 340.467 151.734 341.202C151.568 342.398 151.67 343.617 152.032 344.769C151.684 345.234 151.469 345.785 151.41 346.364C151.13 348.178 151.612 350.43 152.487 351.412C152.663 351.624 152.903 351.775 153.17 351.841C152.858 353.681 153.061 355.57 153.757 357.301C154.014 358.236 154.575 359.059 155.35 359.641C155.301 360.69 155.459 361.738 155.814 362.726C156.225 363.813 156.803 364.383 157.346 364.356C157.384 365.126 157.538 365.885 157.801 366.609C157.96 367.057 158.204 367.471 158.519 367.827C157.788 368.324 157.123 368.913 156.541 369.58C155.705 369.636 154.976 370.168 154.667 370.947C154.398 371.491 154.338 372.115 154.501 372.7C154 372.833 153.593 373.198 153.406 373.681C153.219 374.165 153.275 374.709 153.555 375.145C153.241 375.305 152.99 375.568 152.846 375.89C152.661 376.283 152.641 376.733 152.788 377.141C152.936 377.549 153.241 377.881 153.634 378.063C153.837 378.159 154.058 378.21 154.282 378.212C153.867 378.99 153.979 379.944 154.562 380.605C154.914 381.088 155.431 381.425 156.015 381.551C155.912 382.019 156.018 382.509 156.304 382.892C156.642 383.332 157.179 383.57 157.731 383.523C157.737 383.875 157.854 384.215 158.064 384.496C158.613 385.215 159.639 385.352 160.358 384.803C160.478 384.711 160.584 384.601 160.673 384.479H160.751C160.747 384.534 160.747 384.59 160.751 384.645C161.018 385.652 162.027 386.273 163.045 386.056C163.637 386.01 164.192 385.748 164.603 385.32C164.95 385.651 165.423 385.814 165.899 385.767C166.148 385.744 166.388 385.663 166.6 385.53C166.889 385.578 167.185 385.578 167.475 385.53C167.878 385.459 168.259 385.294 168.587 385.048C168.775 384.989 168.951 384.894 169.103 384.768C169.509 385.042 170.016 385.119 170.484 384.978C170.952 384.837 171.333 384.493 171.52 384.04C171.834 384.197 172.19 384.247 172.535 384.181C172.962 384.106 173.341 383.864 173.589 383.509C173.837 383.154 173.933 382.714 173.857 382.288C173.815 382.065 173.728 381.854 173.603 381.665C174.459 381.539 175.152 380.904 175.354 380.062C175.545 379.488 175.52 378.865 175.284 378.309C175.73 378.127 176.071 377.754 176.212 377.292C176.373 376.762 176.258 376.186 175.906 375.758C176.189 375.551 176.4 375.26 176.51 374.926" fill="#FFC18C"/>
<path d="M201.469 373.401C201.738 372.54 201.26 371.623 200.401 371.35C200.206 371.289 200.001 371.265 199.797 371.28C199.887 371.233 199.972 371.177 200.051 371.113C200.721 370.316 200.648 369.132 199.884 368.423C199.507 367.952 198.966 367.639 198.37 367.547C198.448 367.071 198.31 366.586 197.993 366.223C197.914 366.13 197.823 366.048 197.722 365.978C198.352 365.364 198.659 363.796 198.431 362.078C198.369 361.589 198.257 361.107 198.098 360.64C198.851 360.693 199.525 359.335 199.701 357.214C199.818 355.895 199.724 354.567 199.42 353.279C199.937 352.665 200.222 351.89 200.226 351.088C200.322 349.896 200.148 348.698 199.718 347.582C200.021 347.024 200.192 346.403 200.217 345.768C200.383 343.84 199.779 341.693 198.878 340.965C198.705 340.817 198.484 340.736 198.256 340.737C198.353 340.63 198.432 340.509 198.492 340.378C199.105 339.125 198.878 336.382 197.976 334.243C197.708 333.357 197.126 332.6 196.339 332.113C196.358 331.07 196.171 330.034 195.787 329.064C195.35 328.029 194.763 327.539 194.238 327.644C194.175 326.886 194.001 326.142 193.721 325.435C193.248 324.314 192.601 323.84 192.04 324.051C191.594 322.552 191.209 321.15 190.999 320.098C190.202 316.058 183.513 314.84 183.636 320.974C183.711 322.349 183.554 323.727 183.172 325.05C182.465 325.595 181.845 326.246 181.333 326.978C180.47 328.23 179.789 329.599 179.311 331.044C178.593 330.904 177.884 332.008 177.56 333.901C177.367 335.199 177.384 336.519 177.613 337.81C177.031 338.254 176.681 338.936 176.659 339.668C176.495 340.865 176.6 342.084 176.965 343.235C176.615 343.704 176.398 344.257 176.335 344.839C176.054 346.644 176.536 348.905 177.411 349.878C177.584 350.095 177.824 350.246 178.094 350.308C177.791 352.15 177.994 354.04 178.681 355.776C178.94 356.708 179.501 357.528 180.274 358.108C180.225 359.159 180.382 360.211 180.738 361.201C181.15 362.288 181.736 362.849 182.27 362.823C182.307 363.592 182.461 364.352 182.725 365.075C182.882 365.526 183.129 365.941 183.452 366.293C182.719 366.789 182.054 367.378 181.474 368.046C180.637 368.1 179.907 368.633 179.6 369.413C179.326 369.956 179.266 370.582 179.434 371.166C178.932 371.295 178.522 371.657 178.333 372.14C178.144 372.622 178.199 373.167 178.479 373.602C178.171 373.77 177.923 374.031 177.77 374.347C177.586 374.74 177.565 375.19 177.713 375.598C177.861 376.006 178.165 376.338 178.558 376.521C178.76 376.619 178.981 376.673 179.206 376.679C178.797 377.458 178.908 378.408 179.486 379.071C179.84 379.551 180.357 379.885 180.939 380.009C180.836 380.481 180.945 380.974 181.237 381.359C181.574 381.8 182.112 382.038 182.664 381.99C182.662 382.342 182.779 382.685 182.997 382.963C183.257 383.309 183.646 383.536 184.075 383.594C184.505 383.652 184.939 383.535 185.282 383.269C185.404 383.176 185.511 383.064 185.597 382.936H185.676C185.671 382.989 185.671 383.041 185.676 383.094C185.931 384.106 186.941 384.734 187.961 384.514C188.556 384.463 189.112 384.198 189.528 383.769C189.87 384.107 190.345 384.274 190.823 384.225C191.069 384.198 191.305 384.117 191.515 383.988C191.805 384.035 192.101 384.035 192.39 383.988C192.796 383.92 193.18 383.758 193.511 383.515C193.695 383.446 193.866 383.349 194.019 383.225C194.426 383.5 194.934 383.577 195.403 383.436C195.873 383.295 196.255 382.951 196.444 382.498C196.755 382.663 197.114 382.716 197.459 382.647C197.886 382.57 198.265 382.326 198.511 381.969C198.758 381.612 198.852 381.172 198.773 380.745C198.739 380.525 198.655 380.315 198.527 380.132C199.387 380.006 200.082 379.366 200.278 378.519C200.473 377.947 200.452 377.323 200.217 376.766C200.675 376.595 201.034 376.229 201.198 375.767C201.368 375.237 201.252 374.657 200.891 374.233C201.177 374.029 201.389 373.736 201.495 373.401" fill="#FFC18C"/>
<path d="M411.517 373.9C411.517 373.9 419.633 385.749 426.715 383.602C433.798 381.455 433.85 379.317 430.681 374.33C427.512 369.343 419.896 356.162 419.642 348.16C419.388 340.159 402.553 351.841 402.553 351.841L403.805 369.685C403.805 369.685 409.933 371.552 411.517 373.927" fill="#9F662D"/>
<path d="M344.405 370.561C344.405 370.561 352.512 382.419 359.603 380.272C366.694 378.125 366.729 375.978 363.56 371C360.391 366.022 352.774 352.832 352.52 344.83C352.266 336.829 335.431 348.485 335.431 348.485L336.683 366.328C336.683 366.328 342.812 368.195 344.405 370.57" fill="#9F662D"/>
<path d="M435.032 323.866C435.032 323.866 436.783 340.238 420.333 351.412C403.883 362.586 399.576 377.467 396.985 384.908C394.394 392.349 385.744 387.888 384.877 380.447C384.011 373.007 390.069 362.577 380.553 363.322C371.036 364.067 346.83 359.598 338.18 369.273C329.531 378.949 321.748 384.908 317.423 381.192C313.099 377.476 325.206 334.287 339.905 326.855C339.905 326.855 349.421 311.22 390.927 303.779C432.432 296.339 435.032 323.884 435.032 323.884" fill="#B88555"/>
<path d="M365.854 317.916C365.854 317.916 414.564 346.11 429.228 347.494C443.892 348.879 445.196 349.422 442.097 342.061L430.839 315.374C429.674 312.622 378.128 300.808 371.553 305.734C364.978 310.659 360.907 311.316 365.854 317.898" fill="#039797"/>
<path d="M362.938 311.018C363.8 313.067 365.81 314.394 368.031 314.381C370.251 314.367 372.245 313.015 373.082 310.956C373.918 308.897 373.433 306.536 371.853 304.975C370.273 303.413 367.908 302.959 365.862 303.823C363.075 305.006 361.768 308.223 362.938 311.018Z" fill="#B88555"/>
<path d="M462.189 307.224C461.214 305.886 460.237 304.486 459.256 303.026C458.528 301.768 457.727 300.553 456.857 299.389C448.243 285.945 439.917 269.477 437.676 260.897C433.614 245.367 419.029 238.11 419.029 238.11L417.742 245.069L441.257 326.452C441.257 326.452 468.457 359.501 482.718 340.247C483.532 339.473 484.134 338.505 484.469 337.433C497.137 314.138 475.829 323.779 462.154 307.189" fill="#9F662D"/>
<path d="M410.782 232.913C421.637 237.047 429.932 246.031 433.194 257.19C438.911 276.251 436.048 280.064 441.283 284.823C446.518 289.582 446.072 300.966 442.728 305.05C439.383 309.134 433.194 319.16 408.41 322.044C383.625 324.927 360.329 300.598 360.329 292.973C360.329 285.348 354.14 235.28 410.782 232.913Z" fill="#C8A977"/>
<path d="M381.253 240.31C381.253 240.31 356.582 250.827 357.616 264.718C358.649 278.609 357.152 319.239 353.352 322.929C349.553 326.618 347.662 338.906 358.29 343.805C368.918 348.704 381.122 341.868 378.206 327.267C375.291 312.666 374.144 290.458 378.863 283.517C383.582 276.576 386.742 265.717 385.184 261.721C385.184 261.721 386.155 257.637 386.733 252.957C387.609 245.595 387.609 236.796 381.27 240.293" fill="#9F662D"/>
<path d="M424.089 313.28C424.089 313.28 429.937 322.491 428.869 327.802C427.801 333.113 435.759 333.288 435.768 325.172C435.776 317.057 433.141 311.299 433.964 310.072C433.964 310.072 426.514 312.806 424.089 313.262" fill="#FFB1B9"/>
<path d="M429.07 311.36C429.07 311.36 433.737 317.495 432.712 327.565" stroke="#FF647D" stroke-width="0.5" stroke-linecap="round" stroke-linejoin="round"/>
<path d="M408.917 281.028C409.171 283.07 408.103 284.639 406.519 284.533C404.934 284.428 403.454 282.684 403.192 280.642C402.929 278.6 404.006 277.031 405.591 277.137C407.175 277.242 408.655 278.986 408.917 281.028Z" fill="#1D1D1B"/>
<path d="M407.263 278.951C407.272 279.218 407.175 279.478 406.993 279.674C406.811 279.87 406.558 279.985 406.291 279.994C406.025 280.006 405.765 279.91 405.569 279.729C405.373 279.548 405.258 279.296 405.249 279.03C405.237 278.762 405.332 278.501 405.513 278.304C405.693 278.107 405.945 277.989 406.212 277.978C406.768 277.963 407.234 278.395 407.263 278.951Z" fill="white"/>
<path d="M405.599 282.605C405.661 282.767 405.84 282.849 406.002 282.789C406.163 282.728 406.245 282.548 406.186 282.386C406.158 282.307 406.1 282.243 406.024 282.208C405.948 282.173 405.861 282.171 405.783 282.202C405.704 282.23 405.64 282.288 405.605 282.365C405.571 282.441 405.568 282.528 405.599 282.605Z" fill="white"/>
<path d="M433.666 274.832C433.929 276.874 432.852 278.442 431.277 278.337C429.701 278.232 428.204 276.488 427.95 274.446C427.696 272.404 428.764 270.835 430.34 270.94C431.916 271.046 433.413 272.79 433.666 274.832Z" fill="#1D1D1B"/>
<path d="M432.012 272.755C432.036 273.31 431.605 273.78 431.049 273.804C430.494 273.828 430.025 273.397 430 272.842C429.976 272.286 430.406 271.815 430.961 271.791C431.229 271.776 431.491 271.87 431.689 272.052C431.886 272.233 432.003 272.486 432.012 272.755Z" fill="white"/>
<path d="M430.349 276.409C430.41 276.57 430.589 276.652 430.751 276.593C430.83 276.566 430.894 276.507 430.929 276.431C430.964 276.355 430.966 276.268 430.935 276.19C430.908 276.111 430.849 276.047 430.773 276.012C430.697 275.977 430.61 275.975 430.532 276.006C430.371 276.067 430.289 276.247 430.349 276.409Z" fill="white"/>
<path d="M448.952 298.013C446.991 306.347 441.878 309.774 437.343 311.159C434.674 311.938 431.875 312.171 429.114 311.842C422.566 318.222 409.46 318.81 403.673 306.584C397.887 294.358 410.02 283.236 410.02 283.236C416.149 267.312 396.162 259.766 396.162 259.766C393.334 249.249 400.207 251.397 402.36 247.497C404.514 243.597 398.955 237.146 398.955 237.146L397.983 235.464L396.643 234.771C401.295 233.74 406.03 233.133 410.791 232.957C411.602 233.235 412.398 233.56 413.172 233.93C413.084 234.412 413.032 234.85 413.032 234.85C413.47 242.159 415.868 242.957 422.609 245.928C429.35 248.899 435.304 253.745 429.534 258.942C423.765 264.14 423.406 276.278 437.151 280.581C437.624 280.73 438.07 280.879 438.499 281.045C450.755 285.76 448.952 298.03 448.952 298.03" fill="#FAF2BD"/>
<path d="M444.207 281.089C444.207 281.089 423.634 282.255 422.321 289.362C421.007 296.47 435.934 296.9 435.934 296.9C435.934 296.9 455.255 282.185 444.19 281.124" fill="#1D1D1B"/>
<path d="M444.767 282.483C444.767 282.746 442.946 283.271 440.618 283.657C438.289 284.043 436.354 284.148 436.31 283.885C436.267 283.622 438.123 283.096 440.46 282.711C442.798 282.325 444.724 282.229 444.767 282.483Z" fill="white"/>
<path d="M346.217 342.35C342.49 342.957 338.678 342.805 335.011 341.903C332.079 341.153 329.335 339.798 326.957 337.924C323.057 336.451 319.009 335.405 314.884 334.804C321.328 343.454 330.792 350.141 342.566 349.335L343.617 349.265C353.037 348.704 358.649 349.563 362.369 351.079C367.517 353.191 369.067 356.591 371.999 359.343C376.858 364.409 377.418 371.736 377.488 373.576C377.488 373.734 377.488 373.874 377.488 373.988C377.602 375.373 378.504 375.68 381.691 373.865C391.163 368.449 377.471 337.801 346.165 342.315" fill="#FBC73C"/>
<path d="M221.167 357.976C221.167 357.976 209.296 313.394 251.852 306.452C294.408 299.511 322.125 305.462 329.049 315.374C335.974 325.286 354.779 354.015 348.843 365.908C342.908 377.8 284.515 375.811 284.515 375.811L221.167 357.976Z" fill="#FAC660"/>
<path d="M284.909 367.932C282.694 365.356 279.901 363.839 277.52 363.673C273.545 362.244 267.627 362.516 258.768 366.828C239.332 376.293 236.373 375.014 236.006 373.997V373.454C236.006 373.454 233.905 366.293 229.667 367.441C225.43 368.589 215.66 375.978 222.883 383.006C222.883 383.006 228.888 399.562 260.37 380.035C264.669 377.306 269.118 374.819 273.694 372.586C274.253 373.744 274.963 374.822 275.804 375.793C279.236 379.781 284.06 381.245 286.572 379.071C289.085 376.898 288.323 371.911 284.9 367.932" fill="#F5AD1F"/>
<path d="M233.703 312.061C233.703 312.061 246.082 306.803 247.413 310.361C248.744 313.919 246.117 325.681 242.922 326.136C239.726 326.592 227.12 316.032 233.703 312.114" fill="#E07C00"/>
<path d="M260.729 339.957C258.29 339.764 255.975 338.801 254.119 337.205C253.282 334.699 252.191 332.285 250.862 330.001C243.246 316.934 228.503 309.581 213.76 312.833C195.201 316.917 183.671 336.241 188.013 355.996C192.355 375.75 210.915 388.423 229.475 384.347C233.879 383.378 238.035 381.503 241.679 378.843C241.679 378.843 256.316 368.905 262.76 367.038C269.203 365.172 270.691 341.141 260.737 339.966" fill="#FAC660"/>
<path d="M248.14 362.744C248.14 362.744 257.183 368.344 262.707 367.029C268.231 365.715 268.275 351.719 266.594 346.127" stroke="#503629"/>
<path d="M266.515 340.658C266.515 340.658 266.034 339.545 264.905 341.254L262.917 342.928C261.166 344.041 259.197 344.988 259.844 345.233C261.115 345.541 262.41 345.738 263.714 345.82C265.132 346.11 266.463 346.478 266.586 346.846C266.831 347.582 267.951 342.026 266.507 340.711" fill="#1D1D1B"/>
<path d="M264.012 341.456C262.261 348.16 255.774 353.138 247.991 353.138C238.895 353.138 231.523 346.337 231.523 337.933C231.523 330.326 237.573 324.024 245.478 322.902C247.467 324.997 249.204 327.317 250.652 329.817C251.978 332.102 253.069 334.516 253.909 337.021C255.759 338.626 258.077 339.592 260.519 339.773C261.841 339.92 263.075 340.51 264.02 341.447" fill="#F18A00"/>
<path d="M200.751 322.92C200.751 322.92 213.673 314.822 213.235 320.405C212.797 325.987 205.706 335.225 207.431 339.598C209.155 343.971 212.421 370.798 204.603 367.827C196.785 364.856 189.423 340.308 189.423 340.308L200.751 322.92Z" fill="#E07C00"/>
<path d="M200.751 322.92C200.751 322.92 182.507 323.796 182.366 328.371C182.226 332.946 190.823 344.147 195.122 342.937C199.42 341.728 210.959 323.656 200.742 322.92" fill="#FBC73C"/>
<path d="M201.644 326.355C201.644 326.355 188.512 326.995 188.39 330.282C188.267 333.568 194.518 341.675 197.591 340.799C200.664 339.922 208.972 326.908 201.644 326.364" fill="#DA9189"/>
<path d="M305.298 340.141C271.646 343.112 256.535 305.742 256.535 305.742C275.962 300.94 290.766 300.379 302.059 302.105C306.183 302.712 310.23 303.758 314.132 305.225C316.937 306.288 319.632 307.624 322.177 309.213C325.405 311.215 328.31 313.698 330.792 316.575C335.677 322.271 336.92 327.372 336.92 327.372C336.92 327.372 338.986 337.17 305.342 340.141" fill="#E07C00"/>
<path d="M323.061 325.278C323.061 325.278 283.193 332.631 297.883 355.741C312.573 378.852 314.666 374.628 314.666 374.628C314.666 374.628 299.984 372.525 287.395 370.421C274.806 368.318 268.065 369.974 269.334 374.926C270.604 379.878 275.857 378.826 289.47 380.929C303.083 383.033 331.439 388.274 333.532 380.929C335.624 373.585 325.145 371.473 333.532 367.275C341.919 363.077 355.567 332.613 323.026 325.26" fill="#F5AD1F"/>
<path d="M220.178 355.005C223.14 355.53 226.056 353.865 227.111 351.044" stroke="#503629"/>
<path d="M243.929 340.141C246.892 340.666 249.807 339.001 250.862 336.18" stroke="#503629"/>
</g>
<defs>
<clipPath id="clip0_14:514">
<rect width="488.505" height="390" fill="white"/>
</clipPath>
</defs>
</svg>
